<svg version="1.1" xmlns="http://www.w3.org/2000/svg" viewBox="0 0 365 365" width="365" height="365">
  <!-- svg-source:excalidraw -->
  
  <defs>
    <style class="style-fonts">
      @font-face {
        font-family: "Virgil";
        src: url("https://excalidraw.com/Virgil.woff2");
      }
      @font-face {
        font-family: "Cascadia";
        src: url("https://excalidraw.com/Cascadia.woff2");
      }
    </style>
  </defs>
  <g stroke-linecap="round" transform="translate(10 10) rotate(0 172.5 172.5)"><path d="M7.86 8.16 C7.86 8.16, 7.86 8.16, 7.86 8.16 M7.86 8.16 C7.86 8.16, 7.86 8.16, 7.86 8.16 M2.75 26.24 C9.72 18.23, 14.97 12.45, 21.12 5.11 M2.75 26.24 C8.44 20.36, 14.56 12.66, 21.12 5.11 M2.88 38.28 C10.05 28.72, 21.35 19.52, 34.37 2.05 M2.88 38.28 C11.88 29.08, 18.6 19.58, 34.37 2.05 M2.36 51.07 C14.58 34.22, 27.94 20.98, 45 2.02 M2.36 51.07 C11.53 41.71, 18.57 32.1, 45 2.02 M2.49 63.11 C23.06 42.78, 39.28 21.34, 55.63 1.98 M2.49 63.11 C15.43 49.19, 26.37 37.13, 55.63 1.98 M2.62 75.16 C19.82 55.54, 37.52 33.51, 66.26 1.95 M2.62 75.16 C20.48 54.55, 39.31 32.32, 66.26 1.95 M2.76 87.2 C31.82 54.63, 62.42 19.35, 76.89 1.91 M2.76 87.2 C24.58 62.19, 47.18 36.56, 76.89 1.91 M2.23 99.99 C29.07 70.82, 53.17 38.69, 87.52 1.88 M2.23 99.99 C29.67 67.72, 56.51 36.37, 87.52 1.88 M2.37 112.03 C33.28 77.84, 63.48 43.49, 98.15 1.85 M2.37 112.03 C27.8 82.8, 53.03 53.77, 98.15 1.85 M2.5 124.07 C24.6 97.26, 50.08 69.54, 108.78 1.81 M2.5 124.07 C28.26 94.55, 54.01 63.32, 108.78 1.81 M2.63 136.11 C42.34 89.21, 85.66 37.99, 119.41 1.78 M2.63 136.11 C40.37 94.81, 75.1 53.1, 119.41 1.78 M2.11 148.91 C47.89 96.16, 96.76 42.05, 130.04 1.74 M2.11 148.91 C30.31 117.92, 59.67 86.6, 130.04 1.74 M2.24 160.95 C58.12 98.16, 111.86 36.84, 140.67 1.71 M2.24 160.95 C47.82 109.54, 91.57 57.52, 140.67 1.71 M2.38 172.99 C56.44 107.36, 112.02 42.94, 150.65 2.43 M2.38 172.99 C59.34 109.48, 115.12 45.01, 150.65 2.43 M2.51 185.03 C62.15 116.01, 123.22 47.37, 161.28 2.39 M2.51 185.03 C35.82 148.64, 67.9 109.99, 161.28 2.39 M2.64 197.07 C40.4 153.49, 77.69 108.48, 171.91 2.36 M2.64 197.07 C55.93 135.84, 109.6 73.67, 171.91 2.36 M2.12 209.87 C58.15 145.2, 114.05 81.22, 182.54 2.32 M2.12 209.87 C68.01 135.37, 133.03 59.16, 182.54 2.32 M2.25 221.91 C44.82 172.55, 85.75 124.37, 193.17 2.29 M2.25 221.91 C75.13 138.79, 147.48 57.07, 193.17 2.29 M2.39 233.95 C63.22 164.44, 122.66 95.6, 203.8 2.26 M2.39 233.95 C44.67 183.22, 87.82 133.44, 203.8 2.26 M2.52 245.99 C74.71 166.81, 143.73 85.5, 214.43 2.22 M2.52 245.99 C81.44 153.17, 162.16 60.53, 214.43 2.22 M2 258.79 C63.84 188.48, 124.82 116.99, 225.06 2.19 M2 258.79 C63.76 185.98, 127.5 112.27, 225.06 2.19 M2.13 270.83 C76.3 185.14, 150.01 100.96, 235.69 2.15 M2.13 270.83 C67.86 198.35, 131.44 125.41, 235.69 2.15 M2.26 282.87 C66.38 208.16, 131.49 132.13, 246.32 2.12 M2.26 282.87 C74.05 199.48, 146.35 115.77, 246.32 2.12 M2.4 294.91 C97.91 183.38, 195.41 71.06, 256.95 2.08 M2.4 294.91 C77.53 208.72, 151 122.55, 256.95 2.08 M1.87 307.71 C92.9 201.93, 183.46 97.06, 267.58 2.05 M1.87 307.71 C81.11 215.91, 159.42 125.85, 267.58 2.05 M4.63 316.73 C89.96 217.6, 174.24 120.73, 278.21 2.01 M4.63 316.73 C64.67 249.38, 122.09 182.07, 278.21 2.01 M4.76 328.77 C82.68 237.87, 162.51 147.65, 288.84 1.98 M4.76 328.77 C96.43 222.6, 189.12 116.32, 288.84 1.98 M8.18 337.04 C111.49 221.07, 213.59 102.5, 299.47 1.94 M8.18 337.04 C86.99 244.79, 166.96 152.04, 299.47 1.94 M14.87 341.53 C96.02 249.05, 176.22 157.44, 310.1 1.91 M14.87 341.53 C118.12 225.51, 220.12 108.03, 310.1 1.91 M21.56 346.02 C116.99 240.07, 209.56 130.77, 318.1 4.89 M21.56 346.02 C100.28 253.76, 181.38 161.33, 318.1 4.89 M32.85 345.23 C101.15 266.04, 168.82 188.39, 329.39 4.11 M32.85 345.23 C125.04 238.07, 217.72 131.24, 329.39 4.11 M43.48 345.2 C129.15 248.08, 215.39 147.83, 336.08 8.6 M43.48 345.2 C119.46 258.95, 194.92 172.15, 336.08 8.6 M54.11 345.17 C134.98 250.8, 216.02 157.2, 342.78 13.09 M54.11 345.17 C142.45 246.41, 228.86 145.52, 342.78 13.09 M64.08 345.89 C157.13 238.48, 248.95 131.64, 346.19 21.36 M64.08 345.89 C132.02 265.33, 201.55 185.53, 346.19 21.36 M74.71 345.85 C148.24 258.67, 223.04 172.95, 346.32 33.4 M74.71 345.85 C178.88 224.64, 283.96 103.18, 346.32 33.4 M85.34 345.82 C175.69 243.39, 263.75 143.03, 346.46 45.44 M85.34 345.82 C164.91 254.73, 245.08 163.23, 346.46 45.44 M95.97 345.78 C163.21 267.93, 231.87 188.41, 346.59 57.48 M95.97 345.78 C185.41 241.56, 274.01 139.26, 346.59 57.48 M106.6 345.75 C155.21 287.92, 205.2 230.47, 346.72 69.52 M106.6 345.75 C171.65 273.7, 234.22 201.1, 346.72 69.52 M117.23 345.71 C174.85 278.61, 232.36 213.21, 346.2 82.32 M117.23 345.71 C162.9 290.94, 209.43 237.15, 346.2 82.32 M127.86 345.68 C191.41 269.89, 256.98 197.37, 346.33 94.36 M127.86 345.68 C171.44 295.23, 216.68 243.92, 346.33 94.36 M138.49 345.64 C180.58 295.29, 226.03 244.66, 346.47 106.4 M138.49 345.64 C185.03 291.39, 233.11 237.37, 346.47 106.4 M149.12 345.61 C209.43 275.57, 272.01 206.6, 346.6 118.44 M149.12 345.61 C221.32 261.78, 295.29 177.59, 346.6 118.44 M159.75 345.57 C209.4 290.13, 261.81 230.42, 346.73 130.48 M159.75 345.57 C223.64 269.96, 288.06 196.34, 346.73 130.48 M170.39 345.54 C210.01 297.28, 253.49 249.33, 346.21 143.28 M170.39 345.54 C217.88 293.27, 264.25 238.53, 346.21 143.28 M181.02 345.51 C241.18 279.26, 297.83 212.84, 346.34 155.32 M181.02 345.51 C240.97 277.7, 300.31 208.37, 346.34 155.32 M191.65 345.47 C227.44 301.71, 262.08 263.56, 346.48 167.36 M191.65 345.47 C245.35 285.03, 297.54 222.39, 346.48 167.36 M202.28 345.44 C246.28 294.01, 292.54 244.49, 346.61 179.4 M202.28 345.44 C248.1 293.97, 293.14 241.25, 346.61 179.4 M212.91 345.4 C254.28 295.04, 298.18 247.02, 346.74 191.44 M212.91 345.4 C256.78 295.58, 299.97 246.03, 346.74 191.44 M223.54 345.37 C248.79 317.38, 273.13 288.08, 346.22 204.24 M223.54 345.37 C264.11 298.98, 303.56 253.23, 346.22 204.24 M234.17 345.33 C265.17 310.43, 295.07 273.67, 346.35 216.28 M234.17 345.33 C264.49 308.6, 297.06 271.49, 346.35 216.28 M244.8 345.3 C268.76 318.44, 293.35 288.47, 346.48 228.32 M244.8 345.3 C279.28 305.14, 313.66 267.2, 346.48 228.32 M255.43 345.26 C289.23 306.99, 322.1 267.94, 346.62 240.36 M255.43 345.26 C285.78 309.38, 318.85 271.32, 346.62 240.36 M266.06 345.23 C299.67 309.55, 329.89 271.3, 346.75 252.4 M266.06 345.23 C282.02 326.14, 299.31 305.77, 346.75 252.4 M276.69 345.2 C292.35 331.31, 306.85 315.03, 346.23 265.2 M276.69 345.2 C291.82 328.74, 304.87 310.96, 346.23 265.2 M287.32 345.16 C310.45 320.51, 332.69 291.88, 346.36 277.24 M287.32 345.16 C310.4 319.15, 333.48 292.36, 346.36 277.24 M297.29 345.88 C312.02 329.14, 326.45 313.77, 346.49 289.28 M297.29 345.88 C307.26 333.04, 317.89 320.74, 346.49 289.28 M307.92 345.85 C322.23 328.16, 335.78 314.53, 346.63 301.32 M307.92 345.85 C317.37 335.1, 324.96 325.18, 346.63 301.32 M316.58 348.08 C324.74 340.17, 331.1 328.64, 346.1 314.11 M316.58 348.08 C324.75 338.53, 333.04 328.84, 346.1 314.11 M329.84 345.02 C336.55 338.81, 341.07 331.89, 344.27 328.42 M329.84 345.02 C334.54 338.84, 339.95 334.79, 344.27 328.42" stroke="#a5d8ff" stroke-width="1" fill="none"></path><path d="M32 0 M32 0 C104.4 -0.59, 176.67 -1.31, 313 0 M32 0 C131.71 0.28, 231.07 0.16, 313 0 M313 0 C333.72 1.37, 344.02 11.03, 345 32 M313 0 C333.28 2.06, 343.33 11.48, 345 32 M345 32 C344.98 100.74, 345.9 171.37, 345 313 M345 32 C344.61 94.98, 344.65 159.15, 345 313 M345 313 C345.91 335.73, 333.28 343.94, 313 345 M345 313 C345.6 336.57, 333.4 346.01, 313 345 M313 345 C235.67 345.91, 158.51 346.48, 32 345 M313 345 C237.44 346.14, 162.51 345.51, 32 345 M32 345 C9.02 346.98, 0.65 332.63, 0 313 M32 345 C11.08 344.62, 0.54 332.24, 0 313 M0 313 C-0.76 209.31, 0.12 105.33, 0 32 M0 313 C1.72 219.81, 1.08 125.35, 0 32 M0 32 C1.39 11.94, 11.8 1.04, 32 0 M0 32 C-0.11 10.76, 9.41 0.28, 32 0" stroke="#1e1e1e" stroke-width="2" fill="none"></path></g><g stroke-linecap="round"><g transform="translate(75 287) rotate(0 111.54994172423142 0.7156352817237632)"><path d="M0.48 0.93 C37.74 1.11, 186.38 -0.08, 223.83 -0.05 M-0.73 0.37 C36.33 0.85, 185.17 1.64, 222.8 1.46" stroke="#1e1e1e" stroke-width="2" fill="none"></path></g><g transform="translate(75 287) rotate(0 111.54994172423142 0.7156352817237632)"><path d="M196.14 11.41 C203.68 10.24, 214.61 6.62, 224.25 3.03 M194.12 12.29 C203.79 7.37, 212.88 4.38, 222.67 2.18" stroke="#1e1e1e" stroke-width="2" fill="none"></path></g><g transform="translate(75 287) rotate(0 111.54994172423142 0.7156352817237632)"><path d="M196.16 -9.11 C203.49 -3.68, 214.42 -0.7, 224.25 3.03 M194.14 -8.23 C203.67 -6.37, 212.75 -2.59, 222.67 2.18" stroke="#1e1e1e" stroke-width="2" fill="none"></path></g></g><mask></mask><g stroke-linecap="round" transform="translate(225 67) rotate(0 27.5 82)"><path d="M1.79 5.53 C1.79 5.53, 1.79 5.53, 1.79 5.53 M1.79 5.53 C1.79 5.53, 1.79 5.53, 1.79 5.53 M4.55 14.56 C9.81 8.57, 13.66 5.17, 15.7 1.73 M4.55 14.56 C9.32 9.42, 12.78 5.74, 15.7 1.73 M4.68 26.6 C11.26 20.47, 14.52 17.2, 26.33 1.69 M4.68 26.6 C12.12 17.09, 20.31 9.07, 26.33 1.69 M4.82 38.64 C12.65 28.58, 24.23 17.2, 36.31 2.41 M4.82 38.64 C15.13 27.57, 23.88 16.63, 36.31 2.41 M4.95 50.68 C14.38 39.74, 21.31 31.58, 47.59 1.62 M4.95 50.68 C17.82 36.59, 30.22 21.26, 47.59 1.62 M4.43 63.47 C18.36 44.67, 35.57 30.51, 54.29 6.12 M4.43 63.47 C17 48.22, 29.6 34.36, 54.29 6.12 M4.56 75.51 C14.38 61.24, 29.05 48.11, 58.36 13.63 M4.56 75.51 C21.79 56.69, 36.15 37.72, 58.36 13.63 M4.69 87.56 C18.85 75.34, 31.21 58.52, 58.49 25.67 M4.69 87.56 C19 71.4, 33.43 54.59, 58.49 25.67 M4.83 99.6 C21.91 78.52, 43.38 57.8, 58.62 37.71 M4.83 99.6 C25.7 75.15, 48.93 49.9, 58.62 37.71 M4.96 111.64 C21.7 94.54, 37.35 75.63, 58.1 50.51 M4.96 111.64 C17.9 97.5, 28.7 83.08, 58.1 50.51 M4.44 124.43 C15.73 108.07, 29.44 94.49, 58.23 62.55 M4.44 124.43 C22.67 102.53, 42.86 80.02, 58.23 62.55 M4.57 136.47 C23.67 114.38, 39.97 95.19, 58.37 74.59 M4.57 136.47 C18.5 120.37, 34.22 103.8, 58.37 74.59 M0.11 153.8 C11.45 138.33, 24.24 123.79, 58.5 86.63 M0.11 153.8 C19.39 130.92, 39.96 108.59, 58.5 86.63 M4.18 161.31 C18.78 148.12, 30.9 130.57, 58.63 98.67 M4.18 161.31 C17.79 145.29, 32.24 129.07, 58.63 98.67 M10.87 165.8 C26.69 148.17, 44.4 127.1, 58.11 111.46 M10.87 165.8 C21.36 153.19, 33.62 139.82, 58.11 111.46 M21.5 165.77 C36.84 148.02, 50.17 131.41, 58.24 123.51 M21.5 165.77 C36.33 148.26, 49.71 133.59, 58.24 123.51 M31.48 166.49 C42.74 153.97, 50.65 144.7, 58.38 135.55 M31.48 166.49 C41.58 155.73, 50.46 143.37, 58.38 135.55 M42.11 166.45 C44.77 164.18, 47.92 160.36, 58.51 147.59 M42.11 166.45 C48.9 158.67, 53.88 152.87, 58.51 147.59 M3.49 160.61 C3.49 160.61, 3.49 160.61, 3.49 160.61 M3.49 160.61 C3.49 160.61, 3.49 160.61, 3.49 160.61 M12.51 157.85 C8.43 154.46, 7.05 153.15, 3.45 149.98 M12.51 157.85 C9.24 154.61, 5.45 151.54, 3.45 149.98 M24.55 157.72 C16.41 149.72, 9.17 143.56, 3.42 139.35 M24.55 157.72 C16.43 150.18, 7.1 142.61, 3.42 139.35 M37.35 158.24 C24.36 149.18, 14.81 141.06, 3.38 128.72 M37.35 158.24 C30.48 151.74, 22.9 145.86, 3.38 128.72 M51.65 160.07 C40.15 150.46, 31.04 139.09, 3.35 118.09 M51.65 160.07 C37.9 147.35, 22.64 136.22, 3.35 118.09 M55.39 152.72 C36.97 135.54, 17.78 119.27, 3.32 107.46 M55.39 152.72 C40.4 139.41, 26.14 125.79, 3.32 107.46 M55.36 142.09 C43.73 132.67, 31.05 119.85, 3.28 96.83 M55.36 142.09 C42.8 131.58, 31.34 122.97, 3.28 96.83 M55.32 131.46 C41.67 119.1, 22.69 103.99, 3.25 86.2 M55.32 131.46 C34.61 114.82, 14.62 96.67, 3.25 86.2 M55.29 120.83 C37.79 107.17, 22.13 91.35, 3.21 75.57 M55.29 120.83 C41.64 108.19, 27.2 96.74, 3.21 75.57 M55.25 110.2 C43.36 97.33, 29.6 88.01, 3.18 64.94 M55.25 110.2 C34.02 93.25, 14.23 74.13, 3.18 64.94 M55.22 99.57 C41.68 87.89, 30.36 78.66, 3.14 54.31 M55.22 99.57 C37.41 83.35, 19.28 69.66, 3.14 54.31 M55.18 88.94 C36.28 73.57, 17.09 57.15, 3.11 43.68 M55.18 88.94 C37.88 73, 21.84 59.17, 3.11 43.68 M55.15 78.31 C37.11 62.55, 20.92 47.07, 3.07 33.05 M55.15 78.31 C41.64 66.71, 28.17 54.56, 3.07 33.05 M55.11 67.68 C42.49 56.76, 27.43 44.67, 3.04 22.42 M55.11 67.68 C40.35 53.68, 25.3 41.56, 3.04 22.42 M55.08 57.05 C32.4 39.93, 9.97 21.72, 0.74 9.82 M55.08 57.05 C39.54 44.99, 25.24 30.43, 0.74 9.82 M55.05 46.42 C41.75 34.69, 29.09 25.92, 4.48 2.47 M55.05 46.42 C37.94 31.46, 18.51 16.07, 4.48 2.47 M55.77 36.45 C39.68 21.21, 25.38 10.19, 13.5 -0.29 M55.77 36.45 C41.98 23.47, 25.65 11.19, 13.5 -0.29 M55.73 25.82 C51.13 18.68, 40.86 15.66, 26.3 0.23 M55.73 25.82 C49.54 19.37, 41.67 14.59, 26.3 0.23 M55.7 15.19 C53.16 12.54, 47.98 7.74, 39.09 0.76 M55.7 15.19 C52.47 11.13, 47.99 8.13, 39.09 0.76" stroke="#ffec99" stroke-width="1" fill="none"></path><path d="M13.75 0 M13.75 0 C20.57 -1.38, 25.05 -0.46, 41.25 0 M13.75 0 C21.05 -0.73, 27.16 0.01, 41.25 0 M41.25 0 C52.12 0.59, 53.13 6.11, 55 13.75 M41.25 0 C48.52 -1.51, 55.63 4.5, 55 13.75 M55 13.75 C52.43 43.88, 53.27 74.49, 55 150.25 M55 13.75 C56.01 56.43, 55.37 98.45, 55 150.25 M55 150.25 C55.69 160.68, 49.36 165.73, 41.25 164 M55 150.25 C56.42 160.28, 48.72 166.1, 41.25 164 M41.25 164 C31.64 162.97, 26.46 163.19, 13.75 164 M41.25 164 C36.13 164.44, 29.83 164.96, 13.75 164 M13.75 164 C6.19 162.53, -1.18 159.62, 0 150.25 M13.75 164 C4.58 163.1, -1.06 158.91, 0 150.25 M0 150.25 C-2.47 104.82, -1.05 59.35, 0 13.75 M0 150.25 C0.25 105.59, -0.05 59.28, 0 13.75 M0 13.75 C0.4 3.49, 5.12 -0.62, 13.75 0 M0 13.75 C-1.97 3.86, 3.18 -2.08, 13.75 0" stroke="#1e1e1e" stroke-width="2" fill="none"></path></g><g stroke-linecap="round" transform="translate(84 92) rotate(0 28 28)"><path d="M8.28 8.52 C8.28 8.52, 8.28 8.52, 8.28 8.52 M8.28 8.52 C8.28 8.52, 8.28 8.52, 8.28 8.52 M0.45 29.48 C7.06 20.59, 13.7 15.51, 27.11 -0.15 M2.34 27.57 C8.54 20.27, 17.42 10.63, 24.75 1.46 M4.27 34.79 C15.27 25.97, 20.33 16.64, 35.37 2.8 M6.17 36.19 C13.21 25.72, 21.91 15.79, 34.28 3.98 M7.38 46.41 C20.38 30.36, 35.22 14.76, 42.67 6.35 M8.48 46.19 C21.36 31.82, 32.79 16.27, 41.83 5.8 M16.67 51.67 C29.51 36.27, 42.57 20.34, 48.13 9.91 M13.78 49.48 C22.7 39.74, 32.75 28.78, 49.08 9.17 M23.34 52.49 C33.49 41.93, 43.52 29.42, 54.6 17.5 M21.17 54.06 C33.72 39.82, 45.88 26.03, 54.87 16.91 M26.73 58.61 C33.06 51.21, 42.17 44.41, 57.41 24.04 M27.59 59.5 C34.58 50.76, 44.18 41.19, 58.23 23.82 M6.65 44.18 C6.65 44.18, 6.65 44.18, 6.65 44.18 M6.65 44.18 C6.65 44.18, 6.65 44.18, 6.65 44.18 M25.66 49.64 C18.68 43.17, 8.59 35.8, -1.27 27.96 M27.12 51.53 C15.61 42.25, 6.6 34.18, 1.1 28.26 M35.9 47.84 C26.49 38.6, 13.21 30.62, 3.61 22.37 M38.46 48.96 C25.26 39.7, 13.33 28.69, 4.26 20.58 M47.92 45.81 C39.21 39.74, 29.25 33.08, 8.08 14.1 M46.61 48.13 C32.01 34.61, 16.72 20.14, 8.51 13.26 M52.07 39.2 C39.55 29.78, 28.03 19.91, 12.85 6.43 M50.93 40.38 C41.94 33.2, 32.07 22.65, 11.2 5.39 M55.37 35.96 C42.89 22.67, 29.14 7.75, 18.47 -0.31 M56.16 34.95 C47.05 27.26, 37.32 16.76, 18.29 2.14 M57.07 22.8 C45.71 13.59, 35.27 5.27, 25.67 -2.31 M56.36 24.68 C48.71 16.77, 39.43 8.78, 26.13 -2.64" stroke="#b2f2bb" stroke-width="1" fill="none"></path><path d="M25.22 0.34 C30.99 -0.49, 39.23 1.64, 44.04 5.01 C48.85 8.37, 52.37 15.06, 54.09 20.54 C55.82 26.01, 56.43 32.35, 54.38 37.84 C52.34 43.33, 47.11 50.67, 41.84 53.48 C36.57 56.28, 28.63 56.21, 22.78 54.67 C16.92 53.13, 10.53 49.02, 6.72 44.24 C2.91 39.47, -0.37 32, -0.1 26.03 C0.18 20.05, 4.1 12.57, 8.38 8.41 C12.66 4.25, 22.57 2.51, 25.59 1.06 C28.62 -0.38, 26.55 -0.46, 26.52 -0.25 M31.61 1.09 C37.56 1.69, 45.2 4.92, 49.38 9.46 C53.56 13.99, 56.81 22.1, 56.7 28.28 C56.59 34.47, 52.61 41.86, 48.72 46.55 C44.83 51.24, 39 55.23, 33.35 56.41 C27.69 57.6, 19.81 56.74, 14.78 53.67 C9.76 50.59, 5.43 43.45, 3.19 37.95 C0.95 32.46, -0.14 26.19, 1.33 20.68 C2.81 15.18, 6.96 8.09, 12.02 4.9 C17.09 1.72, 28.5 2.25, 31.73 1.59 C34.96 0.92, 31.21 0.51, 31.4 0.9" stroke="#1e1e1e" stroke-width="2" fill="none"></path></g></svg>